PathFileType	4	(X/Y/Z)	C:/Users/beibeiliu/ov580/test_trc/User3\sequence.49_training_dense_right.trc
DataRate	CameraRate	NumFrames	NumMarkers	Units	OrigDataRate	OrigDataStartFrame	OrigNumFrames
120	120	12	19	mm	120	1	87
Frame#	Time	ThumbCMC			ThumbMCP			ThumbIP			ThumbTip			IndexMCP			IndexPIP			IndexTip			MiddleMCP			MiddlePIP			MiddleTip			RingMCP			RingPIP			RingTip			PinkyMCP			PinkyPIP			PinkyTip			BackHand1			BackHand2			BackHand3	
		X0	Y0	Z0	X1	Y1	Z1	X2	Y2	Z2	X3	Y3	Z3	X4	Y4	Z4	X5	Y5	Z5	X6	Y6	Z6	X7	Y7	Z7	X8	Y8	Z8	X9	Y9	Z9	X10	Y10	Z10	X11	Y11	Z11	X12	Y12	Z12	X13	Y13	Z13	X14	Y14	Z14	X15	Y15	Z15	X16	Y16	Z16	X17	Y17	Z17	X18	Y18	Z18	
0	0	108.401	20.9347	60.2279	87.4548	1.39417	34.9489	83.5397	-14.5638	7.66884	95.8325	-27.3976	-11.5394	115.355	47.5337	-11.7744	102.157	42.0805	-42.3402	89.9424	27.4668	-59.374	147.537	50.4553	-15.0234	142.014	54.9835	-45.9476	138.687	41.1345	-78.5761	163.281	37.2042	-11.4941	164.885	34.2859	-41.8159	160.62	11.4576	-64.3206	177.855	13.5521	-3.21845	178.674	-3.00636	-25.3851	167.836	-26.7631	-31.4367	165.354	38.5395	36.7038	168.241	39.5946	67.9396	135.497	47.6677	54.5049	
1	0.00833333	106.753	21.4486	54.8308	93.0988	3.01057	34.4478	88.5563	-12.2366	3.80867	97.6152	-27.2615	-13.8155	117.136	47.8703	-11.589	102.293	44.4252	-42.819	94.7173	19.4206	-58.623	144.31	50.1703	-13.7182	140.182	50.4644	-50.7916	133.027	24.6114	-74.6269	160.683	36.7423	-13.7924	166.757	27.44	-39.7942	151.04	-0.985172	-53.8577	175.243	11.2267	-2.36964	174.023	-6.78488	-25.5566	155.586	-28.0972	-26.6131	164.968	36.4266	36.5389	168.197	37.2277	67.126	135.552	48.9619	50.9982	
2	0.0166667	106.08	20.0544	59.7167	95.1868	1.43501	31.5047	88.2195	-13.4515	3.65768	101.488	-26.1457	-13.9285	118.953	45.5646	-12.4693	104.441	43.9613	-40.5015	97.5976	18.6691	-57.3216	145.147	48.1586	-19.666	139.679	43.6972	-51.5289	131.356	11.4186	-70.2764	163.469	31.4607	-13.206	162.154	23.1916	-40.1307	150.095	-7.68185	-48.5759	176.527	9.97113	-3.10517	176.664	-7.34772	-23.2229	161.208	-28.1095	-28.3899	166.434	34.09	35.2795	171.642	35.4828	64.1395	138.259	46.9191	51.812	
3	0.025	105.973	18.7578	56.5435	91.4287	0.508928	34.838	85.5396	-14.447	4.57479	92.3817	-30.3022	-14.1687	119.441	41.1425	-11.3532	106.21	37.3192	-44.4134	100.444	16.1622	-61.6765	150.708	39.7085	-19.5678	144.819	34.1789	-53.7821	135.683	6.41277	-72.1217	164.688	27.5334	-14.595	165.841	15.8877	-43.5528	153.444	-10.1924	-54.3472	179.984	5.37069	0.151662	184.416	-7.58144	-20.6215	172.165	-32.5741	-35.4453	166.013	32.2732	34.9769	171.152	30.4402	66.5282	136.279	43.9141	47.27	
4	0.0333333	106.342	18.733	54.7308	90.4511	1.8124	36.0443	77.272	-12.2098	10.1146	77.1618	-28.8843	-9.82535	124.495	34.3399	-17.3475	111.605	34.1146	-43.0439	105.4	18.1219	-65.9534	149.454	30.25	-18.6798	145.977	24.9435	-54.9789	137.803	7.40422	-79.3047	167.28	15.6881	-10.6857	169.343	10.2881	-43.9258	164.311	-10.2101	-65.6194	184.081	-4.54112	5.07861	192.751	-14.4441	-21.0897	191.157	-32.7326	-39.3902	169.39	23.6132	37.3459	177.267	24.7389	65.6089	145.089	36.7356	49.292	
5	0.0416667	109.14	17.6076	53.318	92.0356	3.14574	36.9085	75.2303	-8.56538	17.5722	66.0619	-21.86	-1.55505	124.734	28.6056	-17.3867	118.529	26.4745	-45.7501	104.389	21.896	-69.423	154.703	21.8272	-21.1008	152.373	19.5202	-52.1684	143.658	10.969	-80.7231	170.321	9.67819	-15.0858	177.531	5.26522	-39.6591	173.554	-4.36874	-64.9118	188.838	-11.8241	2.56267	195.113	-18.0291	-15.926	203.999	-34.1629	-39.4283	176.087	15.2737	33.8305	177.408	19.3547	61.8507	148.588	32.5251	43.93	
6	0.05	114.014	19.2337	54.0343	90.1219	10.299	38.635	69.8961	0.323135	16.0257	58.3281	-11.4333	1.22185	129.163	26.9258	-18.6915	117.359	28.0846	-44.8607	114.272	23.2343	-68.59	156.353	21.0109	-22.284	155.038	18.9146	-51.4212	151.121	13.5434	-82.4215	176.224	3.26574	-14.8195	180.293	-1.0212	-39.1185	179.672	-9.62429	-64.2593	185.294	-16.7657	3.79532	195.049	-30.6167	-17.2528	196.747	-46.0523	-39.1028	176.163	14.731	36.1029	178.088	17.1978	63.7602	150.351	31.9092	44.0093	
7	0.0583333	115.79	24.7425	57.5773	92.771	16.6069	36.8563	73.1569	8.80286	15.1229	59.8423	-1.24998	-3.14073	132.785	30.4337	-19.0025	125.279	28.9188	-47.4596	118.294	28.7449	-71.4209	162.752	17.6649	-23.0049	161.926	17.4707	-52.1519	161.48	10.9795	-85.7341	175.925	-3.77076	-15.3405	178.149	-11.7875	-40.8127	169.615	-21.8076	-63.6557	180.686	-24.4395	4.51678	181.322	-39.4456	-15.4734	174.065	-61.282	-33.5192	178.098	11.5443	31.9264	180.745	13.8509	65.9341	153.177	33.8785	46.5718	
8	0.0666667	121.047	24.8464	51.7486	95.7728	19.8858	35.2888	78.762	11.981	14.0811	65.0247	0.415409	-4.48079	140.615	27.2208	-20.3	133.929	30.7102	-46.687	129.292	28.1297	-68.3931	166.786	9.93757	-20.5088	166.514	6.73598	-53.8511	161.376	0.655071	-79.338	169.138	-11.6487	-11.6494	164.836	-24.8915	-37.701	145.767	-45.1907	-55.9482	171.26	-36.9559	4.01189	158.813	-52.099	-13.0632	142.825	-70.8822	-18.6113	181.613	0.602206	34.5084	183.071	3.75787	63.967	159.679	27.5416	47.2983	
9	0.075	122.094	28.9641	54.7914	96.4512	20.2815	32.8048	79.7053	11.4709	11.3997	69.8686	-5.37757	-8.54955	147.232	22.846	-19.9459	140.403	29.378	-44.0377	134.702	25.2206	-72.4522	164.785	4.20624	-23.9358	161.788	-5.313	-54.373	149.902	-15.3966	-79.0672	161.59	-22.8488	-11.2631	148.221	-37.1867	-33.5322	122.101	-53.6454	-40.9894	161.327	-46.5976	6.62533	144.097	-58.5711	-7.13263	121.923	-68.8747	-13.5011	175.213	-3.25277	36.8244	180.682	-2.83651	63.3914	164.368	23.3931	47.2435	
10	0.0833333	124.325	25.7976	50.8929	95.4159	20.6627	28.6562	77.6466	8.33029	7.83634	74.0229	-13.4409	-8.94289	147.03	22.7144	-16.6284	142.72	27.6917	-48.9189	140.116	21.9184	-71.3309	160.472	-3.82973	-24.9493	154.034	-14.1952	-52.1908	130.418	-28.9703	-72.9617	155.267	-30.1029	-14.4405	138.392	-43.7076	-31.1057	109.842	-56.0689	-32.6892	156.945	-49.8358	6.74536	140.227	-60.1702	-7.73072	114.572	-71.0395	-15.0321	174.499	-6.42096	37.4901	180.263	-3.73096	66.0633	162.03	20.4772	46.725	
11	0.0916667	123.698	27.0673	53.9257	100.435	18.9418	29.7661	81.1025	6.04349	2.87195	77.1015	-16.0279	-12.5739	146.685	24.9268	-20.768	143.979	26.4145	-50.3062	134.695	22.6385	-75.6219	155.301	-1.60817	-25.1019	141.472	-15.6297	-54.4313	110.453	-29.2066	-64.6822	155.175	-27.4976	-16.7195	137.475	-42.2372	-33.2707	105.479	-51.8479	-33.2656	157.216	-45.0174	-0.96742	142.695	-61.1314	-15.1074	120.595	-71.8404	-21.2655	175.419	-9.73943	30.7976	179.028	-5.58822	62.5572	160.752	22.7309	40.9154	
